<svg xmlns="http://www.w3.org/2000/svg" viewBox="0 0 780 150" role="img" aria-label="briansharelife" data-colorway="gold">
  <path d="M49.0 105.6L27.7 104L27.7 100.8L34.6 100.3Q34.7 97.1 34.7 93.4Q34.7 89.6 34.8 85.9Q34.8 82.2 34.8 79.2L34.8 79.2L34.8 26.1L27.2 25.4L27.2 22.6L50.3 18.1L51.7 19.0L51.4 35.8L51.4 54.2L51.7 55.2L51.7 95.9L51.7 96.1L49.0 105.6ZM67.7 105.8L67.7 105.8Q62.1 105.8 57.3 103.0Q52.5 100.2 48.9 94.5L48.9 94.5L47.7 94.5L49.9 93.2Q52.5 96.1 55.0 97.2Q57.5 98.4 60.3 98.4L60.3 98.4Q63.9 98.4 67.1 96.5Q70.3 94.6 72.2 89.5Q74.1 84.4 74.1 75.0L74.1 75.0Q74.1 62.8 70.3 57.7Q66.4 52.6 60.6 52.6L60.6 52.6Q58.6 52.6 56.7 53.0Q54.7 53.5 52.4 55.0Q50.1 56.6 47.0 60.0L47.0 60.0L45.5 57.0L47.9 57.0Q52.3 51.1 57.6 48.3Q62.9 45.4 68.9 45.4L68.9 45.4Q75.5 45.4 80.7 48.9Q85.9 52.3 88.9 59.0Q92.0 65.6 92.0 75.4L92.0 75.4Q92.0 83.9 88.9 90.8Q85.8 97.7 80.3 101.7Q74.9 105.8 67.7 105.8Z M130.9 104L97.0 104L97.0 100.8L108.1 99.6L119.6 99.6L130.9 100.8L130.9 104ZM121.3 104L103.7 104Q104.0 101.3 104.0 96.9Q104.1 92.5 104.1 87.7Q104.2 82.9 104.2 79.2L104.2 79.2L104.2 70.6Q104.2 65.4 104.1 62.3Q104.0 59.2 103.7 55.4L103.7 55.4L96.2 54.6L96.2 52.1L118.8 45.6L120.2 46.5L121.0 61.5L121.0 61.6L121.0 79.2Q121.0 82.9 121.1 87.7Q121.1 92.5 121.2 96.9Q121.2 101.3 121.3 104L121.3 104ZM121.0 70.6L121.0 70.6L117.0 63.9L120.3 63.9Q121.7 57.8 124.5 53.7Q127.2 49.6 130.7 47.5Q134.1 45.4 137.4 45.4L137.4 45.4Q141.2 45.4 144.0 47.2Q146.8 49.0 147.5 53.7L147.5 53.7Q147.4 57.2 145.6 59.6Q143.8 62.1 139.8 62.1L139.8 62.1Q136.9 62.1 134.8 60.4Q132.8 58.8 130.7 55.8L130.7 55.8L128.3 52.8L131.6 53.7Q127.7 56.4 125.2 60.3Q122.7 64.2 121.0 70.6Z M180.0 104L149.6 104L149.6 100.8L160.5 99.7L168.6 99.7L180.0 100.8L180.0 104ZM173.8 104L156.2 104Q156.3 101.3 156.4 96.9Q156.4 92.5 156.5 87.7Q156.6 82.9 156.6 79.2L156.6 79.2L156.6 70.9Q156.6 65.7 156.5 62.2Q156.4 58.8 156.2 55.1L156.2 55.1L148.5 54.3L148.5 51.8L172.5 45.6L173.8 46.5L173.4 63.2L173.4 79.2Q173.4 82.9 173.5 87.7Q173.5 92.5 173.6 96.9Q173.7 101.3 173.8 104L173.8 104ZM164.6 35.9L164.6 35.9Q160.9 35.9 158.3 33.5Q155.6 31.1 155.6 27.2L155.6 27.2Q155.6 23.6 158.3 21.2Q160.9 18.8 164.6 18.8L164.6 18.8Q168.3 18.8 170.9 21.2Q173.5 23.6 173.5 27.2L173.5 27.2Q173.5 31.1 170.9 33.5Q168.3 35.9 164.6 35.9Z M200.2 105.8L200.2 105.8Q193.6 105.8 189.3 102.0Q185.0 98.2 185.0 91.6L185.0 91.6Q185.0 86.8 187.1 83.4Q189.1 79.9 194.0 77.2Q198.9 74.5 207.3 72.2L207.3 72.2Q211.2 71.0 216.6 69.7Q221.9 68.3 226.1 67.3L226.1 67.3L226.1 70.0Q221.9 71.0 217.8 72.2Q213.7 73.3 211.3 74.2L211.3 74.2Q206.2 76.3 203.4 80.0Q200.5 83.7 200.5 89.4L200.5 89.4Q200.5 94.1 202.7 96.4Q204.8 98.7 208.3 98.7L208.3 98.7Q209.7 98.7 211.4 98.0Q213.1 97.3 215.4 95.4Q217.8 93.5 221.0 89.9L221.0 89.9L223.0 95.7L218.7 95.7Q215.8 98.9 213.3 101.1Q210.7 103.4 207.6 104.6Q204.6 105.8 200.2 105.8ZM230.0 105.7L230.0 105.7Q224.2 105.7 221.2 102.6Q218.2 99.6 217.4 94.5L217.4 94.5L217.4 94.3L217.4 63.1Q217.4 57.7 216.4 54.7Q215.5 51.6 213.2 50.3Q210.9 49.1 207.0 49.1L207.0 49.1Q204.5 49.1 201.8 49.6Q199.1 50.1 195.1 51.5L195.1 51.5L202.6 49.0L201.9 56.9Q201.7 62.3 199.4 64.5Q197.1 66.8 194.1 66.8L194.1 66.8Q188.2 66.8 186.8 61.4L186.8 61.4Q187.5 54.1 194.2 49.8Q200.8 45.4 212.9 45.4L212.9 45.4Q224.0 45.4 228.9 50.5Q233.8 55.5 233.8 66.9L233.8 66.9L233.8 94.8Q233.8 97.8 234.6 99.0Q235.4 100.2 236.8 100.2L236.8 100.2Q238.0 100.2 239.0 99.3Q240.0 98.5 241.5 96.2L241.5 96.2L243.4 97.6Q241.4 101.8 238.2 103.7Q235.0 105.7 230.0 105.7Z M274.9 104L244.7 104L244.7 100.8L255.5 99.7L263.7 99.7L274.9 100.8L274.9 104ZM268.9 104L251.4 104Q251.6 101.3 251.6 96.9Q251.7 92.5 251.7 87.7Q251.8 82.9 251.8 79.2L251.8 79.2L251.8 70.6Q251.8 65.5 251.7 62.3Q251.6 59.2 251.4 55.4L251.4 55.4L243.8 54.6L243.8 52.1L266.4 45.6L267.8 46.5L268.6 58.1L268.6 58.4L268.6 79.2Q268.6 82.9 268.7 87.7Q268.7 92.5 268.8 96.9Q268.8 101.3 268.9 104L268.9 104ZM311.0 104L280.9 104L280.9 100.8L291.5 99.7L299.6 99.7L311.0 100.8L311.0 104ZM304.9 104L287.3 104Q287.4 101.3 287.5 96.9Q287.5 92.6 287.6 87.8Q287.6 83.0 287.6 79.2L287.6 79.2L287.6 64.2Q287.6 58.1 285.9 55.7Q284.1 53.2 280.5 53.2L280.5 53.2Q277.5 53.2 273.1 55.8Q268.7 58.3 264.5 63.5L264.5 63.5L264.1 58.7L266.0 58.7Q271.9 51.0 277.0 48.2Q282.1 45.4 287.9 45.4L287.9 45.4Q295.2 45.4 299.9 50.4Q304.5 55.3 304.5 65.5L304.5 65.5L304.5 79.2Q304.5 83.0 304.5 87.8Q304.6 92.6 304.7 96.9Q304.8 101.3 304.9 104L304.9 104Z M334.7 105.6L334.7 105.6Q329.7 105.6 325.7 104.5Q321.6 103.4 317.4 101.4L317.4 101.4L317.4 89.0L321.9 89.0L324.4 102.1L320.6 101.9L320.6 98.2Q323.5 100.2 326.7 101.2Q330.0 102.2 334.5 102.2L334.5 102.2Q341.4 102.2 344.9 99.4Q348.4 96.6 348.4 92.2L348.4 92.2Q348.4 88.4 346.0 86.0Q343.7 83.5 337.3 81.5L337.3 81.5L331.9 79.6Q325.6 77.3 321.9 73.7Q318.2 70.1 318.2 64.3L318.2 64.3Q318.2 57.7 323.2 53.2Q328.3 48.8 337.6 48.8L337.6 48.8Q342.3 48.8 346.0 49.9Q349.7 51.1 353.6 53.5L353.6 53.5L353.2 64.6L349.1 64.6L346.6 52.4L349.8 53.0L349.8 56.4Q346.7 54.2 343.8 53.2Q340.9 52.2 337.6 52.2L337.6 52.2Q331.7 52.2 328.7 54.8Q325.7 57.4 325.7 61.6L325.7 61.6Q325.7 65.3 328.2 67.7Q330.7 70.0 336.3 72.0L336.3 72.0L341.6 73.8Q349.5 76.5 352.8 80.3Q356.2 84.0 356.2 89.4L356.2 89.4Q356.2 93.9 353.7 97.6Q351.3 101.3 346.6 103.4Q341.9 105.6 334.7 105.6Z M388.8 104L363.3 104L363.3 101.1L374.6 99.9L378.1 99.9L388.8 101.1L388.8 104ZM381.1 104L371.9 104Q372.0 101.5 372.1 97.2Q372.2 93.0 372.2 88.3Q372.3 83.7 372.3 80.2L372.3 80.2L372.3 26.6L363.1 26.2L363.1 23.4L379.3 20.3L380.9 21.2L380.6 37.3L380.6 61.2L380.8 62.5L380.8 80.2Q380.8 83.7 380.8 88.3Q380.9 93.0 380.9 97.2Q381.0 101.5 381.1 104L381.1 104ZM424.4 104L398.9 104L398.9 101.1L410.1 99.9L413.4 99.9L424.4 101.1L424.4 104ZM416.6 104L407.3 104Q407.4 101.5 407.5 97.3Q407.5 93.1 407.6 88.5Q407.6 83.8 407.6 80.2L407.6 80.2L407.6 68.2Q407.6 60.5 405.1 57.5Q402.5 54.4 397.9 54.4L397.9 54.4Q394.3 54.4 389.5 56.7Q384.7 59.0 379.0 65.2L379.0 65.2L377.0 61.7L379.3 61.7Q384.8 54.9 390.4 51.8Q395.9 48.8 401.6 48.8L401.6 48.8Q408.4 48.8 412.3 53.3Q416.1 57.8 416.1 68.5L416.1 68.5L416.1 80.2Q416.1 83.8 416.2 88.5Q416.2 93.1 416.4 97.3Q416.5 101.5 416.6 104L416.6 104Z M445.7 105.6L445.7 105.6Q439.4 105.6 435.4 102.0Q431.3 98.5 431.3 92.0L431.3 92.0Q431.3 88.0 433.1 84.8Q434.8 81.6 438.9 79.1Q443.1 76.6 449.9 74.7L449.9 74.7Q454.3 73.3 459.1 72.1Q463.9 70.8 468.0 69.9L468.0 69.9L468.0 72.5Q463.9 73.5 459.6 74.7Q455.3 75.9 451.8 77.3L451.8 77.3Q445.1 79.7 442.4 83.0Q439.6 86.3 439.6 90.7L439.6 90.7Q439.6 95.5 442.3 98.0Q444.9 100.5 449.3 100.5L449.3 100.5Q451.7 100.5 454.0 99.5Q456.3 98.6 459.2 96.3Q462.1 94.0 466.0 90.1L466.0 90.1L467.0 95.0L464.5 95.0Q461.3 98.4 458.4 100.8Q455.5 103.2 452.5 104.4Q449.5 105.6 445.7 105.6ZM473.4 105.5L473.4 105.5Q468.7 105.5 466.4 102.3Q464.1 99.1 463.8 93.6L463.8 93.6L463.8 93.3L463.8 66.7Q463.8 60.8 462.5 57.7Q461.3 54.5 458.7 53.2Q456.1 52.0 451.9 52.0L451.9 52.0Q448.9 52.0 445.9 52.9Q442.8 53.8 439.4 55.6L439.4 55.6L443.9 52.8L442.2 61.0Q441.8 63.9 440.5 65Q439.2 66.1 437.2 66.1L437.2 66.1Q433.5 66.1 432.7 62.4L432.7 62.4Q434.2 56.1 439.8 52.4Q445.4 48.8 454.2 48.8L454.2 48.8Q463.2 48.8 467.7 53.1Q472.1 57.4 472.1 67.1L472.1 67.1L472.1 92.8Q472.1 97.7 473.2 99.4Q474.4 101.1 476.4 101.1L476.4 101.1Q477.8 101.1 478.8 100.5Q479.9 99.9 481.1 98.6L481.1 98.6L482.8 100.2Q481.1 102.9 478.8 104.2Q476.4 105.5 473.4 105.5Z M513.6 104L486.1 104L486.1 101.1L497.6 99.8L501.9 99.8L513.6 101.1L513.6 104ZM503.9 104L494.7 104Q494.8 101.5 494.9 97.2Q494.9 93.0 495.0 88.3Q495.0 83.7 495.0 80.2L495.0 80.2L495.0 73.9Q495.0 68.5 495.0 64.4Q494.9 60.2 494.7 56.4L494.7 56.4L485.6 56.0L485.6 53.2L501.6 49.1L502.9 49.9L503.6 64.6L503.6 64.7L503.6 80.2Q503.6 83.7 503.6 88.3Q503.7 93.0 503.7 97.2Q503.8 101.5 503.9 104L503.9 104ZM503.5 70.8L503.5 70.8L501.3 65.4L503.1 65.4Q504.7 60.3 507.5 56.6Q510.3 52.9 513.8 50.9Q517.3 48.8 520.9 48.8L520.9 48.8Q523.9 48.8 526.2 50.0Q528.5 51.2 529.2 53.5L529.2 53.5Q529.1 56.3 527.9 57.8Q526.6 59.4 523.8 59.4L523.8 59.4Q521.9 59.4 520.3 58.4Q518.7 57.4 517.0 55.4L517.0 55.4L514.6 53.1L519.3 53.4Q513.9 54.8 510.1 59.0Q506.3 63.2 503.5 70.8Z M559.4 105.6L559.4 105.6Q551.8 105.6 545.8 102.4Q539.7 99.3 536.3 93.0Q532.9 86.6 532.9 77.3L532.9 77.3Q532.9 68.5 536.5 62.1Q540.0 55.7 545.9 52.3Q551.7 48.8 558.6 48.8L558.6 48.8Q565.3 48.8 570.1 51.6Q575.0 54.5 577.5 59.4Q580.1 64.3 580.1 70.4L580.1 70.4Q580.1 74.2 579.4 76.6L579.4 76.6L536.9 76.6L536.9 73.4L567.1 73.4Q569.9 73.4 570.8 72.0Q571.8 70.5 571.8 67.4L571.8 67.4Q571.8 60.7 568.2 56.4Q564.7 52.1 558.3 52.1L558.3 52.1Q553.8 52.1 550.0 55.0Q546.3 57.8 544.1 63.2Q541.9 68.5 541.9 76.0L541.9 76.0Q541.9 84.4 544.5 89.9Q547.0 95.3 551.5 97.8Q556.0 100.4 561.7 100.4L561.7 100.4Q567.2 100.4 571.3 98.4Q575.4 96.5 578.6 92.8L578.6 92.8L580.3 94.2Q576.9 99.4 571.7 102.5Q566.5 105.6 559.4 105.6Z M614.1 104L586.4 104L586.4 101.1L598.5 99.9L601.8 99.9L614.1 101.1L614.1 104ZM604.9 104L595.8 104Q595.9 100.8 595.9 96.7Q596.0 92.6 596.0 88.2Q596.1 83.9 596.1 80.2L596.1 80.2L596.1 26.6L586.9 26.2L586.9 23.4L603.4 20.3L604.9 21.2L604.6 37.3L604.6 80.2Q604.6 83.9 604.7 88.2Q604.7 92.6 604.8 96.7Q604.8 100.8 604.9 104L604.9 104Z M645.7 104L620.0 104L620.0 101.1L631.4 99.9L634.6 99.9L645.7 101.1L645.7 104ZM637.9 104L628.6 104Q628.7 101.5 628.8 97.2Q628.9 93.0 629.0 88.3Q629.0 83.7 629.0 80.2L629.0 80.2L629.0 73.9Q629.0 68.6 628.9 64.4Q628.8 60.1 628.6 56.3L628.6 56.3L619.3 55.8L619.3 53.1L636.5 49.1L637.8 49.9L637.4 64.5L637.4 80.2Q637.4 83.7 637.5 88.3Q637.5 93.0 637.6 97.2Q637.8 101.5 637.9 104L637.9 104ZM632.4 35.9L632.4 35.9Q630.0 35.9 628.2 34.3Q626.4 32.7 626.4 30.1L626.4 30.1Q626.4 27.5 628.2 25.8Q630.0 24.1 632.4 24.1L632.4 24.1Q634.8 24.1 636.7 25.8Q638.5 27.5 638.5 30.1L638.5 30.1Q638.5 32.7 636.7 34.3Q634.8 35.9 632.4 35.9Z M680.8 104L651.8 104L651.8 101.1L663.8 99.9L668.0 99.9L680.8 101.1L680.8 104ZM670.3 104L661.0 104Q661.2 98.1 661.3 92.1Q661.3 86.1 661.3 80.2L661.3 80.2L661.3 54.2L651.5 54.2L651.5 51.1L664.5 49.9L661.3 51.5L661.3 50.9Q661.9 41.0 664.1 34.9Q666.3 28.8 670.5 25.0L670.5 25.0Q673.7 21.9 677.4 20.5Q681.0 19.1 684.8 19.1L684.8 19.1Q688.6 19.1 691.5 20.5Q694.5 21.8 695.3 24.5L695.3 24.5Q695.2 26.4 693.9 27.6Q692.5 28.8 690.1 28.8L690.1 28.8Q688.2 28.8 686.3 27.7Q684.5 26.6 682.3 24.3L682.3 24.3L679.5 21.4L679.5 20.5L683.8 20.5L683.8 21.3Q680.9 21.6 678.3 23.3Q675.7 25.1 674.0 27.7L674.0 27.7Q672.4 30.3 671.3 33.5Q670.3 36.7 670.0 41.3Q669.7 46.0 670.0 52.7L670.0 52.7L670.0 80.2Q670.0 86.1 670.1 92.1Q670.2 98.1 670.3 104L670.3 104ZM686.0 54.2L665.7 54.2L665.7 50.3L686.0 50.3L686.0 54.2Z M717.9 105.6L717.9 105.6Q710.3 105.6 704.3 102.4Q698.2 99.3 694.8 93.0Q691.4 86.6 691.4 77.3L691.4 77.3Q691.4 68.5 695.0 62.1Q698.5 55.7 704.4 52.3Q710.2 48.8 717.1 48.8L717.1 48.8Q723.8 48.8 728.7 51.6Q733.5 54.5 736.0 59.4Q738.6 64.3 738.6 70.4L738.6 70.4Q738.6 74.2 737.9 76.6L737.9 76.6L695.4 76.6L695.4 73.4L725.6 73.4Q728.4 73.4 729.3 72.0Q730.3 70.5 730.3 67.4L730.3 67.4Q730.3 60.7 726.7 56.4Q723.2 52.1 716.8 52.1L716.8 52.1Q712.3 52.1 708.5 55.0Q704.8 57.8 702.6 63.2Q700.4 68.5 700.4 76.0L700.4 76.0Q700.4 84.4 703.0 89.9Q705.5 95.3 710.0 97.8Q714.5 100.4 720.2 100.4L720.2 100.4Q725.7 100.4 729.8 98.4Q733.9 96.5 737.1 92.8L737.1 92.8L738.8 94.2Q735.4 99.4 730.2 102.5Q725.0 105.6 717.9 105.6Z" fill="#C3A050"></path>
  <path d="M26 126 C 90 133, 190 133, 250 124 L 276 108" fill="none" stroke="#C3A050" stroke-width="6" stroke-linecap="round" stroke-linejoin="round"></path>
</svg>